<?xml version="1.0" encoding="utf-8"?>
<!-- Generator: Adobe Illustrator 23.0.0, SVG Export Plug-In . SVG Version: 6.00 Build 0)  -->
<svg version="1.1" xmlns="http://www.w3.org/2000/svg" xmlns:xlink="http://www.w3.org/1999/xlink" x="0px" y="0px"
	 viewBox="0 0 566.9 566.9" style="enable-background:new 0 0 566.9 566.9;" xml:space="preserve">
<style type="text/css">
	.st0{stroke:#FFFFFF;stroke-miterlimit:10;}
	.st1{fill:none;stroke:#000000;stroke-width:10;stroke-linecap:round;stroke-linejoin:round;stroke-miterlimit:10;}
	.st2{fill:none;stroke:#000000;stroke-width:10;stroke-linecap:round;stroke-miterlimit:10;}
	.st3{fill:none;stroke:#000000;stroke-width:10;stroke-miterlimit:10;}
	.st4{fill:none;stroke:#000000;stroke-miterlimit:10;}
</style>
<g id="Calque_1">
</g>
<g id="Calque_2">
	<g>
		<path d="M234.5,290.8c-3.5,0.6-5.8,3.9-5.2,7.4c0.6,3.5,3.9,5.8,7.4,5.2c3.5-0.6,5.8-3.9,5.2-7.4
			C241.3,292.5,238,290.2,234.5,290.8z"/>
		<path d="M329.3,299.8c3.4,0.9,6.9-1.1,7.8-4.5c0.9-3.4-1.1-6.9-4.5-7.8c-3.4-0.9-6.9,1.1-7.8,4.5
			C323.8,295.4,325.9,298.9,329.3,299.8z"/>
		<path d="M268.8,105.8c0.1,0,0.3,0,0.4,0c1.9-0.1,3.7-0.2,5.6-0.2h23.3c2.8,0,5-2.2,5-5s-2.2-5-5-5h-23.3c-2.1,0-4.2,0.1-6.4,0.3
			c-2.8,0.2-4.8,2.6-4.6,5.4C264,103.8,266.2,105.8,268.8,105.8z"/>
		<path d="M394.6,249.2h-1.8c-0.5-23.4-9.2-45.5-24.4-62.4c-14.2-15.8-32.7-25.4-52.6-27.7v-15.5c6.5-2.2,11.2-8.4,11.2-15.6V88.6
			c0-9.1-7.4-16.5-16.5-16.5h-53.8c-9.1,0-16.5,7.4-16.5,16.5V128c0,7.2,4.7,13.4,11.2,15.6v15.6c-42.7,4.8-76,43.6-77.1,90.1h-1.8
			c-8.9,0-16.1,7.6-16.1,17c0,0.2,0,0.5,0,0.7l9.2,66.3c0.2,9.2,7.3,16.6,16,16.6h3.2c0.1,0,0.1,0,0.2,0
			c5.4,15.4,22.7,64.3,28.4,72.7c7.2,10.7,52.1,41.5,69.9,41.9c0.1,0,0.1,0,0.2,0c0.1,0,0.2,0,0.3,0v0c0.1,0,0.1,0,0.2,0
			c18.1-0.6,62.5-31.2,69.7-41.8c5.6-8.4,23-57.3,28.4-72.7c0.1,0,0.1,0,0.2,0h3.2c8.7,0,15.9-7.4,16.1-16.6l9.2-66.3
			c0-0.2,0-0.5,0-0.7C410.6,256.9,403.4,249.2,394.6,249.2z M261.2,163.9v-18.8h44.5v14.5c-1.2,0.9-2,2.3-2,3.9c0,1.7,0.8,3.2,2,4.1
			v19.7h-44.5V163.9z M249,88.6c0-4.1,3.4-7.5,7.5-7.5h53.8c4.1,0,7.5,3.4,7.5,7.5V128c0,3.6-2.5,6.5-5.8,7.3
			c-0.4-0.1-0.9-0.2-1.3-0.2h-54.5c-0.5,0-0.9,0.1-1.3,0.2c-3.3-0.8-5.8-3.7-5.8-7.3V88.6z M345.3,417c-5.6,8.4-47.7,37.2-61.8,37.4
			c-0.1,0-0.1,0-0.2,0c-14.3-0.5-56-29.1-61.6-37.4c-2.1-3.1-6.9-15-12.3-29.3c3.3,7.4,7.3,14.4,11.9,20.8c2.7,3.8,6.9,5.8,11.3,5.8
			c1.5,0,3.1-0.3,4.7-0.8c6-2,9.7-7.4,9.6-13.6c0-0.6,0-1.2,0-1.8c0-33.1,16.7-60,37.2-60c20.5,0,37.2,26.9,37.2,60v0.3
			c0,6.4,3.9,11.7,10,13.7c6,1.9,12.1-0.2,15.7-5.3c4.2-6,7.8-12.5,10.8-19.3C352.2,401.9,347.4,413.8,345.3,417z M300.3,280.3
			c1.3,2.5,4.3,3.4,6.7,2.2c4.1-2.1,13.2-2.9,24.3,0.1c12.5,3.3,20.5,9.5,21.8,13.6c0.6,2.1,2.5,3.4,4.5,3.5
			c1.3,10.2,1.9,21.6,1.9,34.4c0,25.1-7.1,49-20,67.5c-2,2.8-4.8,2.2-5.6,1.9c-1.8-0.6-3.7-2.2-3.7-5.1v-0.3
			c0-18.1-4.6-35.1-12.9-48c-8.7-13.5-20.5-20.9-33.3-20.9s-24.5,7.4-33.3,20.9c-8.3,12.9-12.9,30-12.9,48c0,0.7,0,1.3,0,2
			c0.1,3.5-2.7,4.6-3.5,4.9c-0.8,0.3-3.7,1-5.8-1.8c-13.7-18.7-21.2-43.2-21.2-69.1c0-11.7,0.6-22.1,1.6-31.2c0,0,0,0,0,0
			c2.2,0,4.2-1.4,4.8-3.7c1.4-4.9,8.7-10.8,20-12.8c8.8-1.5,17.3-0.1,21.7,3.7c2.1,1.8,5.3,1.6,7-0.5c1.8-2.1,1.6-5.3-0.5-7
			c-6.7-5.7-18.2-8-29.9-6c-8,1.4-15.1,4.6-20.2,8.9c10.7-46.6,38.9-51.3,71.6-51.3c20.6,0,40.2,1.1,53.9,14
			c7.9,7.5,13.7,19,17.4,34.6c-5.2-4.1-12.5-7.7-20.8-9.9c-12.4-3.3-24.2-3.1-31.5,0.7C300,274.8,299,277.8,300.3,280.3z
			 M391.5,332.2c0,0.2,0,0.5,0,0.7c0,3.8-2.8,7-6.1,7h-3.2c-0.6,0-1.2-0.1-1.8-0.3c-1.3-0.5-2.6-0.4-3.9,0.2
			c-1.2,0.6-2.1,1.6-2.6,2.9c-3.3,9.4-7.3,20.7-11.3,31.7c3.9-12.7,6-26.3,6-40.3c0-46.9-8-76.3-25-92.4
			c-16.1-15.2-38.5-16.5-60.1-16.5c-21.7,0-44,2.2-60.2,18c-17,16.7-25,45.6-25,90.9c0,13.8,2,27.3,5.9,39.9
			c-4-10.8-7.9-22-11.2-31.3c-0.4-1.3-1.4-2.3-2.6-2.9c-1.2-0.6-2.6-0.6-3.9-0.2c-0.6,0.2-1.2,0.3-1.8,0.3h-3.2
			c-3.3,0-6.1-3.2-6.1-7c0-0.2,0-0.5,0-0.7l-9.2-66.2c0.1-3.7,2.9-6.7,6-6.7h3.2c0.6,0,1.2,0.1,1.8,0.3c1.5,0.6,3.2,0.3,4.6-0.6
			c1.3-0.9,2.1-2.5,2.1-4.1v-3.3c0-42,29.2-77.5,67.1-82.4v23.2c0,2.8,2.2,5,5,5h54.5c2.8,0,5-2.2,5-5v-23.2
			c37.6,4.9,67.1,40.3,67.1,82.4v3.3c0,1.6,0.8,3.2,2.1,4.1c1.3,0.9,3,1.2,4.6,0.6c0.6-0.2,1.2-0.3,1.8-0.3h3.2c3.2,0,5.9,3,6,6.7
			L391.5,332.2z"/>
		<path d="M265.1,123.5h36.7c2.5,0,4.5-2,4.5-4.5s-2-4.5-4.5-4.5h-36.7c-2.5,0-4.5,2-4.5,4.5S262.6,123.5,265.1,123.5z"/>
		<path d="M283.5,396.4c-8.7,0-15.8,7.1-15.8,15.8s7.1,15.8,15.8,15.8s15.8-7.1,15.8-15.8S292.2,396.4,283.5,396.4z M283.5,418.1
			c-3.2,0-5.8-2.6-5.8-5.8s2.6-5.8,5.8-5.8s5.8,2.6,5.8,5.8S286.7,418.1,283.5,418.1z"/>
	</g>
</g>
</svg>
