<?xml version="1.0" encoding="utf-8"?>
<!-- Generator: Adobe Illustrator 23.0.0, SVG Export Plug-In . SVG Version: 6.00 Build 0)  -->
<svg version="1.1" xmlns="http://www.w3.org/2000/svg" xmlns:xlink="http://www.w3.org/1999/xlink" x="0px" y="0px"
	 viewBox="0 0 566.9 566.9" style="enable-background:new 0 0 566.9 566.9;" xml:space="preserve">
<style type="text/css">
	.st0{stroke:#FFFFFF;stroke-miterlimit:10;}
	.st1{fill:none;stroke:#000000;stroke-width:10;stroke-linecap:round;stroke-linejoin:round;stroke-miterlimit:10;}
	.st2{fill:none;stroke:#000000;stroke-width:10;stroke-linecap:round;stroke-miterlimit:10;}
	.st3{fill:none;stroke:#000000;stroke-width:10;stroke-miterlimit:10;}
	.st4{fill:none;stroke:#000000;stroke-miterlimit:10;}
</style>
<g id="Calque_1">
</g>
<g id="Calque_2">
	<g>
		<path d="M234.7,240.1c-14.1,2.4-25.3,10.5-27.9,20c-0.7,2.7,0.8,5.4,3.5,6.2c0.4,0.1,0.9,0.2,1.3,0.2c2.2,0,4.2-1.4,4.8-3.7
			c1.4-4.9,8.7-10.8,20-12.8c8.8-1.5,17.3-0.1,21.7,3.7c2.1,1.8,5.3,1.6,7.1-0.5c1.8-2.1,1.6-5.3-0.5-7.1
			C257.9,240.4,246.5,238.1,234.7,240.1z"/>
		<path d="M237.1,254.4c-3.5,0.6-5.8,3.9-5.2,7.4c0.6,3.5,3.9,5.8,7.4,5.2c3.5-0.6,5.8-3.9,5.2-7.4
			C243.9,256.1,240.6,253.8,237.1,254.4z"/>
		<path d="M396,220.6h-1.8c-1.2-50.2-39.3-90.6-86-90.6l-46.6,0c-46.7,0-84.9,40.4-86,90.6h-1.8c-8.9,0-16.1,7.6-16.1,17v0.5
			l14.2,66.7c0.3,9.1,7.4,16.4,16,16.4h3.2c2.6,8.6,8.5,28.6,12.2,41.3c2.2,14.1,10.8,30.9,23.3,44.5c16.9,18.5,37.6,28.7,58.3,28.7
			c20.7,0,41.5-10.2,58.5-28.7c10.1-11,17.8-24,21.5-36c0.1-0.1,0.1-0.2,0.2-0.3c4.3-9.7,12.5-38.5,15.5-49.5h3.1
			c8.7,0,15.8-7.4,16-16.5l12.2-66.7v-0.5C412.1,228.3,404.9,220.6,396,220.6z M291.1,285.9c-3.9-1.4-8.1-1.5-12.1-0.3
			c-19.2,5.8-36.7,14.5-49.8,24.6l-36.5-71.3c2.1-18.8,9.9-29.5,18.3-38.2c10.6-11.1,19.3-11.8,30.4-11.6c5.7,0.1,11.3,2.2,17.2,4.4
			c7.1,2.7,15.2,5.7,24.6,5.6c0.7,0,1.3,0,1.9,0c0.3,0,1.2,0,1.8,0c0.2,0,0.4,0,0.6,0c9.2,0,17-3,23.9-5.6
			c5.9-2.2,11.5-4.3,17.2-4.4c11.1-0.2,19.8,0.5,30.4,11.6c8.3,8.7,16.1,19.3,18.2,37.9l-37.8,71.6
			C324.6,299.5,306.2,291.4,291.1,285.9z M261.6,140l46.6,0c41.9,0,76,37.2,76,83v0.6c-4.1-13.5-11.1-22.6-18.1-29.9
			c-13.4-14-25.5-14.9-37.9-14.7c-7.4,0.1-14,2.7-20.5,5.1c-6.9,2.6-13.4,5-20.9,4.9c-0.7,0-1.9,0-1.9,0l-0.1,0l-0.1,0
			c-0.6,0-1.2,0-1.8,0c-7.6,0.1-14-2.3-20.9-4.9c-6.4-2.4-13.1-4.9-20.5-5.1c-12.3-0.2-24.5,0.7-37.9,14.7c-7,7.3-14,16.4-18.1,29.9
			V223C185.6,177.2,219.7,140,261.6,140z M198.1,309.1l-5,1.8c-0.6,0.2-1.2,0.3-1.8,0.3H188c-3.3,0-6.1-3.2-6.1-7v-0.5l-14.2-66.6
			c0.2-3.6,2.9-6.5,6-6.5h3.2c0,0,0.1,0,0.1,0l5.2,10.2c-0.2,2.8-0.3,5.7-0.3,8.8l0.9,26.2c0.1,2.7,2.3,4.8,5,4.8c0.1,0,0.1,0,0.2,0
			c2.8-0.1,4.9-2.4,4.8-5.2l-0.5-15l28.9,56.4c-2.8,2.7-5.3,5.4-7.5,8.2c-0.2,0.2-0.4,0.5-0.6,0.7c-1.7,2.1-4.6,5.8-6.9,11.4
			c-3.6-12.1-6.7-22.8-6.8-23L198.1,309.1z M284.9,425.8c-32.2,0-61.1-30.7-69.6-56.1c0.1-0.7,0.1-1.5-0.1-2.2
			c-0.5-1.9-1.3-4.4-2.1-7.2c-0.2-1.5-0.3-2.9-0.3-4.3c0-13.4,5.4-20.1,8.3-23.8c0.2-0.3,0.5-0.6,0.7-0.8
			c11.2-14.4,34.2-28.2,60.1-36.1c0.9-0.3,1.7-0.4,2.6-0.4c1.1,0,2.1,0.2,3.2,0.6c17.4,6.3,48.5,19.6,62,38.3
			c0.2,0.3,0.5,0.7,0.9,1.2c2.3,2.9,7.1,9,7.1,21C357.6,382.2,323.6,425.8,284.9,425.8z M389.9,303.8v0.5c0,3.8-2.8,7-6.1,7h-3.2
			c-0.6,0-1.2-0.1-1.8-0.3l-5.1-1.9l-1.4,5.3c-0.1,0.2-3.4,12.7-7.3,25.7c-2.1-5.7-4.9-9.4-6.5-11.4c-0.3-0.3-0.5-0.6-0.6-0.8
			c-2.9-4-6.4-7.8-10.4-11.3l30-57l-0.6,16c-0.1,2.8,2.1,5.1,4.8,5.2c2.8,0.1,5.1-2.1,5.2-4.8l0.9-26l0-0.2c0-3.2-0.1-6.2-0.4-9.1
			l5.2-9.9c0.1,0,0.1,0,0.2,0h3.2c3.2,0,5.9,3,6,6.6L389.9,303.8z"/>
		<path d="M284.7,310.7c-2.8,0-5,2.2-5,5V413c0,2.8,2.2,5,5,5s5-2.2,5-5v-97.3C289.7,313,287.4,310.7,284.7,310.7z"/>
		<path d="M359.7,259.3c-2.6-9.5-13.9-17.5-27.9-20c-11.8-2-23.2,0.3-29.9,6c-2.1,1.8-2.3,5-0.5,7.1c1.8,2.1,5,2.3,7.1,0.5
			c4.4-3.8,12.9-5.3,21.7-3.7c11.3,2,18.6,7.9,20,12.8c0.6,2.2,2.6,3.7,4.8,3.7c0.4,0,0.9-0.1,1.3-0.2
			C358.9,264.7,360.4,262,359.7,259.3z"/>
		<path d="M329.3,253.6c-3.5-0.6-6.8,1.7-7.4,5.2c-0.6,3.5,1.7,6.8,5.2,7.4c3.5,0.6,6.8-1.7,7.4-5.2
			C335.1,257.5,332.8,254.2,329.3,253.6z"/>
	</g>
</g>
</svg>
