<?xml version="1.0" encoding="utf-8"?>
<!-- Generator: Adobe Illustrator 23.0.0, SVG Export Plug-In . SVG Version: 6.00 Build 0)  -->
<svg version="1.1" xmlns="http://www.w3.org/2000/svg" xmlns:xlink="http://www.w3.org/1999/xlink" x="0px" y="0px"
	 viewBox="0 0 566.9 566.9" style="enable-background:new 0 0 566.9 566.9;" xml:space="preserve">
<style type="text/css">
	.st0{stroke:#FFFFFF;stroke-miterlimit:10;}
	.st1{fill:none;stroke:#000000;stroke-width:10;stroke-linecap:round;stroke-linejoin:round;stroke-miterlimit:10;}
	.st2{fill:none;stroke:#000000;stroke-width:10;stroke-linecap:round;stroke-miterlimit:10;}
	.st3{fill:none;stroke:#000000;stroke-width:10;stroke-miterlimit:10;}
	.st4{fill:none;stroke:#000000;stroke-miterlimit:10;}
</style>
<g id="Calque_1">
</g>
<g id="Calque_2">
	<g>
		<path d="M394.4,229.6c-11-12.5-45.9-14.1-57.8-14.3l-1.3-12.5c-0.1-1.2-0.9-2.3-2.1-2.9c-1.2-0.6-2.6-0.5-3.8,0.1
			c-0.1,0.1-7.1,4-16.7,7.5c1.4-1.2,2.5-2.2,3.1-3c2.4-3.3,8.9-20.3,11.8-27.7h0.2c4.6,0,8.4-3.6,8.6-8.1l3.9-25.9l0-0.5
			c0-4.3-3.3-7.8-7.6-8.3c-1.3-19.8-17.9-35.6-38.1-35.6l-19.7,0c-20.2,0-36.7,15.7-38,35.6c-4.3,0.5-7.6,4-7.6,8.3v0.3l3.9,26.2
			c0.2,4.5,3.9,8.1,8.6,8.1h0.2c2.8,7.4,9.4,24.5,11.8,27.7c0.8,1.1,2.5,2.6,4.7,4.3c-9.7-2.9-16.6-6.1-16.8-6.2
			c-1.2-0.6-2.7-0.5-3.8,0.1c-1.2,0.7-1.9,1.8-1.9,3.1l-0.1,8.8c-12.6,1.5-51.9,6.5-61.5,13.8c-12,9.2-14.2,29.3-14.9,35.9
			c-0.7,6.9,2.8,109.7,4.8,119.1c1.8,8.5,15.5,66.9,16.1,69.3c0.2,1,0.9,1.8,1.7,2.3l-0.3,9c0,1.2,0.5,2.4,1.4,3.3
			c0.9,0.9,2.2,1.4,3.5,1.4h46.8l0,0.7c0,1,0.4,2,1.2,2.7c0.7,0.6,1.7,1,2.7,1c0.1,0,0.2,0,0.3,0l140.2-8.6c2.1-0.1,3.7-1.8,3.7-3.7
			l-0.2-7.9c0.1-0.2,0.1-0.3,0.1-0.5c0.9-3.7,21.6-90.2,20.8-124.9c-0.2-9.4,0.1-20.1,0.3-30.3C403.2,267.9,403.9,240.3,394.4,229.6
			z M260.1,200.4c-1.4-2-7.2-16.2-11.9-28.8l-1.3-3.5l-3.8,1.3c-0.1,0-0.1,0-0.1,0h-1.4c-0.3,0-0.7-0.4-0.7-1.1v-0.3l-3.9-26
			c0.1-0.5,0.5-0.9,0.7-0.9h1.4c0,0,0.1,0,0.1,0l5.3,1.8v-6.5c0-17,13.6-30.8,30.3-30.8l19.7,0c16.7,0,30.3,13.8,30.3,30.8v6.5
			l5.3-1.8c0,0,0.1,0,0.1,0h1.4c0.3,0,0.7,0.3,0.7,0.9l-3.8,25.8l0,0.5c0,0.6-0.4,1.1-0.7,1.1h-1.4c0,0-0.1,0-0.1,0l-3.8-1.3
			l-1.3,3.5c-4.7,12.6-10.4,26.8-11.9,28.8c-1.7,2.3-13.2,9.9-20.3,12.8c-1.3,0.1-2.5,0.1-3.7,0.1c-0.2,0-0.4,0-0.5,0
			c-1.4,0-2.9-0.1-4.4-0.2C273.1,210.1,261.7,202.6,260.1,200.4z M191.6,459.5l6-161.8c0-0.2,0-0.3,0-0.5l-1.9-22.6
			c-0.2-2.5-2.6-4.4-5.3-4.2c-2.7,0.2-4.7,2.4-4.5,4.9l1.9,22.4l-4.9,132.1c-4.3-18.4-10-42.7-11.1-47.8
			c-1.8-8.6-5.4-110.6-4.7-116.9c1.7-15.7,5.8-26.1,12.1-31c6.3-4.8,36.3-9.7,56.4-12.1l-2.2,237.6H191.6z M394.5,296.9
			c-0.3,10.4-0.6,21.1-0.3,30.7c0.5,21.4-7.8,64.8-14,93.9l-4.2-136l4.4-16.9c0.5-2-0.8-3.9-2.9-4.4c-2.1-0.5-4.2,0.7-4.7,2.7
			l-4.6,17.3c-0.1,0.3-0.1,0.6-0.1,1l5.3,172.3l-130.6,8c0.1-0.4,0.2-0.9,0.2-1.3c0-1.4-0.7-2.7-1.8-3.5l2.3-249.1
			c7.4,2.9,21.1,7.6,35.2,8.9c2.2,0.8,4.1,1.3,5.7,1.3l0.3,0l0.2,0c1.5-0.1,3.3-0.5,5.4-1.2c14.9-1.3,29.9-7.6,37.7-11.4l1.1,10.3
			c0.2,1.9,1.9,3.3,3.9,3.3c0.2,0,0.5,0,0.7,0c13,0,46.1,2.1,54.6,11.7C396,242.8,395.2,271.5,394.5,296.9z"/>
		<path d="M341.6,274.2c-0.1,0-3.4-0.2-8.3-0.4v-10.6c0-2.5-2.2-4.6-4.9-4.6c-2.7,0-4.9,2-4.9,4.6v10.1c-8.9-0.5-19-1-24.5-1.5
			c-1.4-0.1-2.8,0.4-3.8,1.3c-1,0.9-1.6,2.2-1.5,3.5l2.9,45.3c0.1,1.2,0.7,2.4,1.7,3.2c0.9,0.7,2,1.1,3.2,1.1c0.2,0,0.3,0,0.5,0
			l40.2-3.7c2.5-0.2,4.4-2.2,4.4-4.6l-0.4-39.2C346.2,276.3,344.2,274.3,341.6,274.2z M302.2,319.2l-2.9-40.3
			c12.8,0.7,31.9,1.6,41.4,2l0.4,35.1L302.2,319.2z"/>
		<path d="M266.5,147.4c4.6-0.8,9.4-0.7,9.5-0.7c1,0,1.7-0.9,1.6-2c-0.1-1.2-1-2.1-2-2.2c-0.3,0-6.4-0.2-11.7,1
			c-5.3,1.3-11.5,4.4-11.7,4.6c-0.9,0.4-1.2,1.7-0.7,2.7c0.5,1.1,1.6,1.6,2.4,1.1c0.1,0,4.3-2.2,8.7-3.6c-0.7,0.7-1.1,1.8-0.9,2.8
			c0.3,1.8,2.2,3.1,4.2,2.8c2-0.3,3.3-2.1,3-3.9C268.8,148.7,267.8,147.7,266.5,147.4z"/>
		<path d="M297.4,188.5c-0.2-1.1-1.1-1.9-2.1-1.7c-0.1,0-6.8,1.6-11.9,1.6c-5.1,0-10.7-1.6-10.8-1.6c-0.9-0.3-1.9,0.4-2.1,1.6
			c-0.2,1.1,0.4,2.3,1.3,2.5c0.2,0.1,6.1,1.7,11.6,1.7c5.5,0,12.3-1.6,12.6-1.7C297,190.8,297.6,189.6,297.4,188.5z"/>
		<path d="M292.4,147.1c0.1,0,5.3,0.3,9.9,1.4c-1.8,0.5-2.9,2.1-2.6,3.8c0.3,1.8,2.2,3.1,4.2,2.8c2-0.3,3.3-2.1,3-3.9
			c-0.1-0.5-0.3-1-0.7-1.4c4.1,1.6,7.7,3.9,7.7,3.9c0.8,0.5,1.9,0.1,2.5-0.9s0.4-2.3-0.4-2.8c-0.2-0.1-5.2-3.4-10.4-5
			c-5.2-1.6-12.2-2-12.5-2.1c-1-0.1-1.9,0.8-2.1,2C290.8,146,291.4,147,292.4,147.1z"/>
	</g>
</g>
</svg>
