<?xml version="1.0" encoding="utf-8"?>
<!-- Generator: Adobe Illustrator 23.0.0, SVG Export Plug-In . SVG Version: 6.00 Build 0)  -->
<svg version="1.1" xmlns="http://www.w3.org/2000/svg" xmlns:xlink="http://www.w3.org/1999/xlink" x="0px" y="0px"
	 viewBox="0 0 566.9 566.9" style="enable-background:new 0 0 566.9 566.9;" xml:space="preserve">
<style type="text/css">
	.st0{stroke:#FFFFFF;stroke-miterlimit:10;}
	.st1{fill:none;stroke:#000000;stroke-width:10;stroke-linecap:round;stroke-linejoin:round;stroke-miterlimit:10;}
	.st2{fill:none;stroke:#000000;stroke-width:10;stroke-linecap:round;stroke-miterlimit:10;}
	.st3{fill:none;stroke:#000000;stroke-width:10;stroke-miterlimit:10;}
	.st4{fill:none;stroke:#000000;stroke-miterlimit:10;}
</style>
<g id="Calque_1">
</g>
<g id="Calque_2">
	<path d="M274,382.2c0,2.8,2.2,5,5,5h10.8c2.8,0,5-2.2,5-5s-2.2-5-5-5H279C276.2,377.2,274,379.4,274,382.2z"/>
	<line class="st4" x1="385.9" y1="229.8" x2="390.4" y2="229.8"/>
	<path d="M266.3,253.9c-6.7-5.7-18.2-8-29.9-6c-14.1,2.4-25.3,10.5-27.9,20c-0.7,2.7,0.8,5.4,3.5,6.2c0.4,0.1,0.9,0.2,1.3,0.2
		c2.2,0,4.2-1.4,4.8-3.7c1.4-4.9,8.7-10.8,20-12.8c8.8-1.5,17.3-0.1,21.7,3.7c2.1,1.8,5.3,1.6,7.1-0.5
		C268.7,258.9,268.4,255.7,266.3,253.9z"/>
	<path d="M233.6,269.6c0.6,3.5,3.9,5.8,7.4,5.2c3.5-0.6,5.8-3.9,5.2-7.4c-0.6-3.5-3.9-5.8-7.4-5.2
		C235.3,262.8,233,266.1,233.6,269.6z"/>
	<path d="M365.2,267.9c-2.6-8.4-13.9-16.3-28.8-20.3c-12.4-3.3-24.2-3.1-31.5,0.7c-2.5,1.3-3.4,4.3-2.2,6.7c1.3,2.5,4.3,3.4,6.7,2.2
		c4.1-2.1,13.2-2.9,24.3,0.1c12.5,3.3,20.5,9.5,21.8,13.6c0.7,2.1,2.6,3.5,4.8,3.5c0.5,0,1-0.1,1.5-0.2
		C364.5,273.3,366,270.5,365.2,267.9z"/>
	<path d="M331.7,274.5c3.4,0.9,6.9-1.1,7.8-4.5c0.9-3.4-1.1-6.9-4.5-7.8c-3.4-0.9-6.9,1.1-7.8,4.5
		C326.3,270.1,328.3,273.6,331.7,274.5z"/>
	<path d="M249.9,368.4c0.7,0.2,17.3,4,33,4c15.6,0,35-3.8,35.8-4c2.7-0.5,4.5-3.2,3.9-5.9c-0.5-2.7-3.2-4.5-5.9-3.9
		c-0.2,0-19.3,3.8-33.9,3.8c-14.5,0-30.6-3.7-30.7-3.8c-2.7-0.6-5.4,1-6,3.7S247.2,367.8,249.9,368.4z"/>
	<path d="M303.8,326.9c-5.1,2.5-14.9,6.3-19.8,6.2c-5.5-0.1-14.1-4.1-16.9-5.7c-2.4-1.3-5.5-0.4-6.8,2c-1.3,2.4-0.4,5.5,2,6.8
		c1.3,0.7,12.6,6.6,21.4,6.8c0.2,0,0.3,0,0.5,0c8.9,0,22.4-6.4,24-7.2c2.5-1.2,3.5-4.2,2.3-6.7C309.2,326.7,306.2,325.7,303.8,326.9
		z"/>
	<polyline class="st4" points="285.2,435.8 285.2,435.8 284.9,435.8 	"/>
	<line class="st4" x1="284.9" y1="435.8" x2="284.9" y2="435.8"/>
	<path class="st4" d="M285.2,435.8C285.1,435.8,285.1,435.8,285.2,435.8l-0.2,0"/>
	<path d="M402.3,222c-0.8-0.4-1.3-1.2-1.3-2.1l1-17.3c0.1-1.4-0.4-2.7-1.4-3.7c-0.9-1-2.3-1.6-3.6-1.6h-4.4c-1,0-1.8-0.7-2.1-1.6
		c-10.8-38-43.6-65.7-82.3-65.7l-23.3,0h-23.3c-38.7,0-71.4,27.7-82.3,65.7c-0.3,1-1.1,1.6-2.1,1.6h-3.8c-1.3,0-2.6,0.5-3.6,1.5
		c-0.9,1-1.5,2.3-1.4,3.6l0.5,17.5c0,0.9-0.5,1.7-1.3,2.1c-5.8,2.6-9.9,8.6-9.9,15.7v0.3l9.2,66.6c0,0.1,0,0.1,0,0.2
		c0.2,6,3.2,11.2,7.8,14.1c0.6,0.4,0.9,1,1,1.7l6.6,93.3c1.4,27.7,27.3,49.4,59.1,49.4h93.2c27.9,0,51-19.1,52.7-43.4l6.8-99.4
		c0-0.7,0.4-1.3,1-1.7c4.5-2.9,7.5-8.1,7.7-14c0-0.1,0-0.1,0-0.2l9.2-66.2l0-0.7C412.1,230.6,408.1,224.6,402.3,222z M167.8,237.3
		c0.1-1.7,0.7-3.3,1.7-4.5L172,268L167.8,237.3z M261.6,140h23.3v0h23.3c33.7,0,62.4,24.1,72.3,57.3h-11.1c-1.1-1.2-2.2-2.4-3.3-3.6
		c-13.4-14-25.5-14.9-37.9-14.7c-7.4,0.1-14,2.7-20.5,5.1c-6.9,2.6-13.4,5-20.9,4.9c-0.6,0-1.2,0-1.8,0l-0.3,0c-0.6,0-1.2,0-1.8,0
		c-7.6,0.1-14-2.3-20.9-4.9c-6.4-2.4-13.1-4.9-20.5-5.1c-12.3-0.2-24.5,0.7-37.9,14.7c-1.1,1.1-2.2,2.3-3.3,3.6h-11.1
		C199.3,164.1,227.9,140,261.6,140z M355.4,197.3h-55.3c4-1.1,7.7-2.5,11.2-3.8c5.9-2.2,11.5-4.3,17.2-4.4
		C338.4,188.9,346.3,189.4,355.4,197.3z M269.6,197.3h-55.2c9.1-7.9,17-8.4,26.9-8.2c5.7,0.1,11.3,2.2,17.2,4.4
		C262,194.8,265.7,196.2,269.6,197.3z M377.4,419.1c-1.3,19.1-20,34-42.7,34h-93.2c-26.5,0-48.1-17.5-49.1-39.9c0,0,0-0.1,0-0.1
		l-6.5-91.9h0.4c0.1,0,0.1,0,0.2,0c5.4,15.4,22.7,64.3,28.4,72.7c7.2,10.7,52.1,41.5,69.9,41.9l0.3,0l0.2,0
		c17.9-0.4,62.7-31.1,69.8-41.8c5.6-8.4,23-57.3,28.4-72.7c0.1,0,0.1,0,0.2,0h0.6L377.4,419.1z M390.3,231.2l-5.5,80h-1.2
		c-0.6,0-1.2-0.1-1.8-0.3l-4.8-1.7l-1.7,4.8c-9.2,26.4-24.4,68-28.6,74.4c-5.6,8.3-47.4,37-61.7,37.4l-0.1,0v0c0,0,0,0-0.1,0l0,0
		l0,0c-14.2-0.4-56.1-29.1-61.7-37.4c-4.2-6.3-19.5-48-28.6-74.4l-1.7-4.8l-4.8,1.7c-0.6,0.2-1.2,0.3-1.8,0.3h-1.2l-5.7-80.1
		l-0.1-1.4h4.7c-0.2,0.9-0.4,1.9-0.5,2.8c-0.9,5.1-1.4,10.7-1.3,17l0.9,26.2l10-0.4l-0.9-26c0-7.6,0.8-14.1,2.1-19.7h181.4
		c1.4,5.6,2.2,12.1,2.1,19.7l-0.9,26l10,0.4l0.9-26l0-0.2c0-6.3-0.5-11.9-1.3-17c-0.2-1-0.3-1.9-0.5-2.8h4.5L390.3,231.2z
		 M391,219.8h-6.8H383h-10.8H197.6h-10.8h-1.2h-6.7l-0.3-12.5h8.3h6h12.2h159.6h12.2h6h8.8L391,219.8z M397.8,268.4l2.5-35.7
		c1.1,1.2,1.8,2.9,1.8,4.7L397.8,268.4z"/>
</g>
</svg>
