<svg id="Calque_1" data-name="Calque 1" xmlns="http://www.w3.org/2000/svg" viewBox="0 0 566.93 566.93"><title>tools</title><path d="M458.72,420.66h-27.1a18.8,18.8,0,0,0,2.89-10V379.06a19,19,0,0,0-18.94-18.94h-2.08V291.05a26.1,26.1,0,0,0,21-25.47V167.26a26,26,0,0,0-26-26H321.86v-13A18.93,18.93,0,0,0,303,109.34H176.78a18.93,18.93,0,0,0-18.91,18.91v2.05h0v23.47h-9.56v-14.4h-9v14.4h0V270.08h0v12.18h9V270.08h33.51v12.21h9V270.08h0V207.93h3.24v57.65a26.1,26.1,0,0,0,21,25.47v69.07h-2.08a19,19,0,0,0-18.94,18.94v31.59a18.8,18.8,0,0,0,2.89,10H105.25a4,4,0,0,0,0,8h102a18.73,18.73,0,0,0,5.83.93H415.57a18.78,18.78,0,0,0,5.83-.93h37.32a4,4,0,0,0,0-8ZM181.86,261.08H148.35V162.77h33.51Zm12.26-63h-3.24v-5h3.24Zm0-30.77v15.89h-3.24V153.77h0V139.41h-9v14.36H167.7V130.3h.07v-2.05a9,9,0,0,1,9-9H303a9,9,0,0,1,9,9v13H220.1A26,26,0,0,0,194.12,167.26Zm9.9,98.32V167.26a16.09,16.09,0,0,1,16.08-16.07H408.53a16.09,16.09,0,0,1,16.07,16.07v98.32a16.09,16.09,0,0,1-16.07,16.07H220.1A16.09,16.09,0,0,1,204,265.58Zm181.21,77.19H244.37a5,5,0,0,0,0,9.91h6.15v7.44H225.05V291.55h90.41v16.31a5,5,0,0,0,.54,2.27l8,15.65a5,5,0,0,0,8.51.51l10-14.85a4.89,4.89,0,0,0,.85-2.77V291.56h60.16v68.56H377.69v-7.44h7.54a5,5,0,0,0,0-9.91Zm-17.44,9.91v7.44H260.43v-7.44Zm-42.43-46V291.55h8.16v15.6L329,313.8Zm-122.84,104V379.06a10.55,10.55,0,0,1,10.54-10.54H415.57a10.55,10.55,0,0,1,10.53,10.54v31.59a10.54,10.54,0,0,1-7.27,10h-209A10.55,10.55,0,0,1,202.52,410.65Z"/></svg>