<?xml version="1.0" encoding="utf-8"?>
<!-- Generator: Adobe Illustrator 23.0.0, SVG Export Plug-In . SVG Version: 6.00 Build 0)  -->
<svg version="1.1" id="Calque_1" xmlns="http://www.w3.org/2000/svg" xmlns:xlink="http://www.w3.org/1999/xlink" x="0px" y="0px"
	 viewBox="0 0 566.9 566.9" style="enable-background:new 0 0 566.9 566.9;" xml:space="preserve">
<style type="text/css">
	.st0{stroke:#FFFFFF;stroke-miterlimit:10;}
</style>
<path d="M396.8,360.9c-2.6,0-4.8,2.1-4.8,4.8v0v55.9c0,2.6,2.1,4.8,4.8,4.8s4.8-2.1,4.8-4.8c0,0,0,0,0,0v-55.9
	C401.5,363.1,399.4,360.9,396.8,360.9z"/>
<path d="M361.2,210.5c-25.2,0-45.6,20.4-45.6,45.6c0,25.2,20.4,45.6,45.6,45.6c25.2,0,45.6-20.4,45.6-45.6
	C406.8,231,386.4,210.5,361.2,210.5z M397.2,256.1c0,19.9-16.1,36.1-36,36.1c-19.9,0-36.1-16.1-36.1-36c0-19.9,16.1-36.1,36-36.1
	C381.1,220.1,397.2,236.2,397.2,256.1z"/>
<path d="M244.2,360.9c-2.6,0-4.8,2.1-4.8,4.8v0v55.9c0,2.6,2.1,4.8,4.8,4.8c2.6,0,4.8-2.1,4.8-4.8c0,0,0,0,0,0v-55.9
	C249,363.1,246.8,360.9,244.2,360.9z"/>
<path d="M208.6,210.5c-25.2,0-45.6,20.4-45.6,45.6c0,25.2,20.4,45.6,45.6,45.6c25.2,0,45.6-20.4,45.6-45.6
	C254.2,231,233.8,210.5,208.6,210.5z M244.7,256.1c0,19.9-16.1,36.1-36,36.1c-19.9,0-36.1-16.1-36.1-36c0-19.9,16.1-36.1,36-36.1
	C228.5,220.1,244.7,236.2,244.7,256.1z"/>
<path d="M403.3,302h-42.1c-25.3,0-45.8-20.5-45.9-45.9v-111c0-13.7-11.1-24.8-24.7-24.8c-13.7,0-24.8,11.1-24.8,24.7c0,0,0,0,0,0
	v111c0,14.6,3.4,29,9.8,42.1c2.7,5.4,4.1,11.3,4.3,17.4c-7-8.3-17.5-13.6-29.2-13.6h-42.1c-25.3,0-45.8-20.5-45.9-45.9v-111
	c0-13.7-11.1-24.8-24.7-24.8c-13.7,0-24.8,11.1-24.8,24.7c0,0,0,0,0,0v111c0,14.6,3.4,29,9.8,42.1c2.9,5.8,4.4,12.3,4.4,18.8v104.6
	c0.1,2.6,2.3,4.7,5,4.6c2.5-0.1,4.5-2.1,4.6-4.6V317c0-8-1.8-15.8-5.4-23c-5.8-11.8-8.8-24.8-8.8-37.9v-111
	c-0.2-8.4,6.5-15.4,14.9-15.6c8.4-0.2,15.4,6.5,15.6,14.9c0,0.2,0,0.5,0,0.7v111c0,30.6,24.8,55.4,55.4,55.4h42.1
	c15.8,0,28.6,12.8,28.6,28.7v81.4c0,2.6,2.1,4.8,4.8,4.8c0.7,0,1.3-0.1,1.9-0.4c1.9-0.5,3.4-2.3,3.5-4.4V317c0-8-1.8-15.8-5.4-23
	c-5.8-11.8-8.8-24.8-8.8-37.9v-111c-0.2-8.4,6.5-15.4,14.9-15.6c8.4-0.2,15.4,6.5,15.6,14.9c0,0.2,0,0.5,0,0.7v111
	c0,30.6,24.8,55.4,55.4,55.4h42.1c15.8,0,28.6,12.8,28.6,28.7v81.4c0,2.6,2.1,4.8,4.8,4.8c2.6,0,4.8-2.1,4.8-4.8c0,0,0,0,0,0v-81.5
	C441.5,319.1,424.4,302,403.3,302z"/>
</svg>
