<svg id="Calque_1" data-name="Calque 1" xmlns="http://www.w3.org/2000/svg" viewBox="0 0 566.93 566.93"><defs><style>.cls-1{stroke:#fff;stroke-miterlimit:10;}</style></defs><title>tools</title><path d="M438.75,418.81A2.85,2.85,0,0,1,435.9,416V378.87a28.5,28.5,0,0,0-20.72-27.39,2.87,2.87,0,0,1-2.11-2.75V307.62a2.85,2.85,0,0,1,2.86-2.85h8.56a11.42,11.42,0,0,0,11.41-11.42V247.78a11.42,11.42,0,0,0-11.41-11.41h-8.56a2.86,2.86,0,0,1-2.86-2.85h0a31.37,31.37,0,0,0-31.38-31.38H370.28a2.86,2.86,0,0,1-2.85-2.86V187.87a2.86,2.86,0,0,1,2.85-2.85H376a2.86,2.86,0,0,0,2.85-2.85v-5.71a2.85,2.85,0,0,0-2.85-2.85H347.46a2.84,2.84,0,0,0-2.85,2.85v5.71a2.85,2.85,0,0,0,2.85,2.85h5.71a2.86,2.86,0,0,1,2.85,2.85v11.41a2.86,2.86,0,0,1-2.85,2.86H199.32a2.86,2.86,0,0,1-2.85-2.86V182.17a2.86,2.86,0,0,0-2.85-2.86h-5.71a2.86,2.86,0,0,0-2.85,2.86v17.11a2.86,2.86,0,0,1-2.85,2.86h0a31.37,31.37,0,0,0-31.38,31.38v79.8a2.85,2.85,0,0,0,2.85,2.86h11.41a2.84,2.84,0,0,1,2.85,2.85v17.12A2.86,2.86,0,0,0,170.8,339h5.7a2.85,2.85,0,0,0,2.85-2.85V319a2.85,2.85,0,0,1,2.86-2.85h11.45a2.84,2.84,0,0,0,2.84-2.7c.34-6,2.65-20.13,17.09-20.13h75.7c12.6,0,18.58,10.65,16.84,19.9L300.33,348a2.84,2.84,0,0,1-2.81,2.38H159.39A31.38,31.38,0,0,0,128,381.72V416a2.85,2.85,0,0,1-2.85,2.86H108.1a2.85,2.85,0,0,0-2.85,2.85v5.71a2.86,2.86,0,0,0,2.85,2.85H455.87a2.86,2.86,0,0,0,2.85-2.85v-5.71a2.85,2.85,0,0,0-2.85-2.85Zm-25.61-171h11.41v45.57H413.14ZM289.29,281.94h-75.7a28.5,28.5,0,0,0-27.9,22.83H162.24V230.66a17.1,17.1,0,0,1,17.11-17.11H384.62a17.1,17.1,0,0,1,17.11,17.11V350.41H311.49l5.84-35.21C319.91,300.59,313,281.94,289.29,281.94Zm135.2,136.87h-285V378.87a17.11,17.11,0,0,1,17.11-17.12H407.44a17.11,17.11,0,0,1,17.11,17.12v39.94Z"/><rect class="cls-1" x="179.35" y="230.66" width="34.23" height="11.41"/><rect class="cls-1" x="179.35" y="259.12" width="34.23" height="11.41"/><path class="cls-1" d="M361.79,276.24A22.83,22.83,0,1,0,339,253.42,22.84,22.84,0,0,0,361.79,276.24Zm0-34.17a11.42,11.42,0,1,1-11.41,11.42A11.41,11.41,0,0,1,361.79,242.07Z"/></svg>