<svg id="Calque_1" data-name="Calque 1" xmlns="http://www.w3.org/2000/svg" viewBox="0 0 566.93 566.93"><title>tools</title><path d="M345.63,200.44h60.79a4,4,0,0,0,0-8H345.63a4,4,0,0,0,0,8Z"/><path d="M426,200.7h8.9a4,4,0,0,0,0-8H426a4,4,0,0,0,0,8Z"/><path d="M458.72,421.66h-3.54v-8.2a4,4,0,0,0-4-4H425.44V284h12.12a18.76,18.76,0,0,0,18.74-18.73v-74a18.76,18.76,0,0,0-18.74-18.73H411.08V148.36a4,4,0,0,0-4-4H294a4,4,0,0,0-4,4v24.25H130.1a18.75,18.75,0,0,0-18.73,18.73v74A18.75,18.75,0,0,0,130.1,284h10.46V409.46H117a4,4,0,0,0-4,4v8.2h-7.79a4,4,0,0,0,0,8H115a4,4,0,0,0,2.06.58h68.39a4,4,0,0,0,2-.58H380.75a4,4,0,0,0,2.05.58h68.38a4,4,0,0,0,2.06-.58h5.48a4,4,0,0,0,0-8ZM448.3,265.29A10.75,10.75,0,0,1,437.56,276H380.13V247.88H448.3Zm-30.86,19.17v125h-3.12v-125Zm30.86-44.58H380.13v-3.23a4,4,0,0,0-4-4H249.75V220.08H448.3ZM272.24,295.12l99.89,10.24v33.29c-13.87-2.44-55.9-9.21-98.08-9.73-41.05-.5-71.45-1.15-81.85-1.38V240.65h28.42v8.85a4,4,0,0,0,4,4h6v6.43h9V253.5h6.16a4,4,0,0,0,4-4v-8.85H372.13v46.11l-99.5.38a4,4,0,0,0-.39,8ZM228.62,245.5V219.81h13.13V245.5ZM298,152.36H403.08v18.69H298Zm-178.66,39a10.74,10.74,0,0,1,10.73-10.73H437.56a10.75,10.75,0,0,1,10.74,10.73v20.74H247.19a4.06,4.06,0,0,0-1.44-.28H224.62a4.06,4.06,0,0,0-1.44.28H119.37Zm0,28.74H220.62v12.57H188.2a4,4,0,0,0-4,4v3.23H119.37ZM130.1,276a10.74,10.74,0,0,1-10.73-10.73V247.88H184.2V276Zm21.58,8.44v125h-3.12v-125Zm29.75,137.2H121v-4.2h22.08a4.06,4.06,0,0,0,1.44.28h11.12a4.06,4.06,0,0,0,1.44-.28h24.31Zm197.37-8.2v8.2H189.43v-8.2a4,4,0,0,0-4-4H159.68V284H184.2v47.43a4,4,0,0,0,3.91,4c.34,0,34.9.86,85.84,1.48,50.54.62,100.91,10.35,101.41,10.45a4,4,0,0,0,.77.08,4,4,0,0,0,4-4v-41.7a4,4,0,0,0-3.59-4l-28.44-2.92,28-.1a4,4,0,0,0,4-4V284h26.19V409.46H382.8A4,4,0,0,0,378.8,413.46Zm68.38,8.2H386.8v-4.2h22.08a4.06,4.06,0,0,0,1.44.28h11.12a4.06,4.06,0,0,0,1.44-.28h24.3Z"/></svg>