<svg id="Calque_1" data-name="Calque 1" xmlns="http://www.w3.org/2000/svg" viewBox="0 0 566.93 566.93"><title>tools</title><path d="M462.72,424.66a4,4,0,0,0-4-4h-3.54v-7.2a4,4,0,0,0-4-4H425.44V375h12.12a18.76,18.76,0,0,0,18.74-18.73V154.46a18.76,18.76,0,0,0-18.74-18.73H130.1a18.75,18.75,0,0,0-18.73,18.73V356.29A18.75,18.75,0,0,0,130.1,375h10.46v34.44H117a4,4,0,0,0-4,4v7.2h-7.79a4,4,0,0,0-4,4,2.53,2.53,0,0,1,0,1,4,4,0,0,0,4,4H115a4,4,0,0,0,2.06.58h68.38a4,4,0,0,0,2.06-.58H380.75a4,4,0,0,0,2.05.58h68.38a4,4,0,0,0,2.06-.58h5.48a4,4,0,0,0,4-4,2.52,2.52,0,0,1,0-1Zm-15.54-4H386.8v-3.2h22.08a4.06,4.06,0,0,0,1.44.28h11.12a4.06,4.06,0,0,0,1.44-.28h24.3Zm-32.86-11.2v-34h3.12v34Zm34-255V356.29A10.75,10.75,0,0,1,437.56,367H379V143.73h58.56A10.75,10.75,0,0,1,448.3,154.46ZM371,251.38H119.37V232.69H371Zm0,8V367H185.52V259.38ZM130.1,143.73H371v19.14H227.28v-9a4,4,0,0,0-4-4H207a4,4,0,0,0-4,4v9H131.86a4,4,0,0,0,0,8H203v9.34a4,4,0,0,0,1,2.67l8,8.92a4,4,0,0,0,2.94,1.34h.05a4,4,0,0,0,2.92-1.27L226.2,183a4,4,0,0,0,1.08-2.74v-9.34H371v53.82H119.37V154.46A10.75,10.75,0,0,1,130.1,143.73ZM211,157.9h8.31v20.74L215,183.21l-4-4.52Zm-91.6,198.39V259.38h58.15V367H130.1A10.74,10.74,0,0,1,119.37,356.29Zm287,18.73v34.44H382.8a4,4,0,0,0-4,4v7.2H189.42v-7.2a4,4,0,0,0-4-4H159.68V375Zm-257.76.44h3.12v34h-3.12Zm-27.52,42h22.08a4.06,4.06,0,0,0,1.44.28h11.12a4.06,4.06,0,0,0,1.44-.28h24.3v3.2H121Z"/><path d="M263.35,245.85h60.79a4,4,0,0,0,0-8H263.35a4,4,0,0,0,0,8Z"/><path d="M437.51,208.58H388.86a4,4,0,0,0,0,8h48.65a4,4,0,0,0,0-8Z"/><path d="M397.69,227.32a12.48,12.48,0,1,0,12.48,12.48A12.49,12.49,0,0,0,397.69,227.32Zm0,17a4.48,4.48,0,1,1,4.48-4.48A4.48,4.48,0,0,1,397.69,244.28Z"/><path d="M387.8,203.24h51.43a4,4,0,0,0,4-4v-48.1a4,4,0,0,0-4-4H387.8a4,4,0,0,0-4,4v48.1A4,4,0,0,0,387.8,203.24Zm4-48.1h43.43v40.1H391.8Z"/><path d="M215,215a4,4,0,0,0,4-4V200.59a4,4,0,0,0-8,0V211A4,4,0,0,0,215,215Z"/></svg>